<?xml version="1.0" encoding="utf-8" ?><svg xmlns="http://www.w3.org/2000/svg" xmlns:xlink="http://www.w3.org/1999/xlink" width="740" height="1111" viewBox="0 0 740 1111"><path fill="#FAFDFC" fill-opacity="0.42352942" transform="scale(0.221292 0.221491)" d="M1122.1 1060.39C1123.19 1051.33 1124.01 1041.08 1126.21 1032.48C1129.47 1019.73 1137.01 1006.05 1142.21 994.51C1181.81 906.656 1235.09 834.776 1292.88 774.557C1316.23 750.224 1339.83 730.074 1365.63 712.171C1382.47 700.487 1401.45 690.507 1416.99 675.374C1421.54 670.936 1425.95 664.68 1427 656.294C1428.89 641.165 1427.01 624.94 1429.34 609.815C1443.36 518.622 1485.47 413.05 1528.36 345.989C1547.37 316.274 1569.03 290.427 1590.85 265.532C1604.07 250.442 1644.9 202.69 1657.67 193.805C1661.43 191.187 1665.96 190.936 1670.01 191.823C1685.36 195.178 1701.78 215.214 1714.53 228.035C1772.74 286.558 1822.27 348.606 1862.67 435.641C1897.99 511.731 1921.46 604.162 1910.14 697.206C1898.57 792.301 1832.78 887.287 1781.35 940.16C1777.31 944.305 1773.34 947.965 1768.93 951.146L1771.73 953.27C1800.89 975.127 1832.8 981.282 1864.63 986.939C1875.88 988.939 1886.84 994.59 1898.12 996.294C1924.98 1000.35 1971.21 999.084 1998.56 995.238C2011.36 993.438 2023.99 989.349 2036.75 987.002C2049.19 984.713 2064.2 985.808 2075.88 979.307C2080.08 976.974 2081.26 975.105 2083.41 969.35C2082.13 964.1 2083.3 965.864 2080.73 963.903C2060.95 948.804 2044.06 914.55 2026.47 893.295C2004.49 866.734 1969.76 836.141 1944.61 816.821C1937.13 811.075 1913.67 797.738 1912.23 785.435C1911.16 776.265 1929.26 717.523 1934.11 709.939C1937.05 705.338 1939.44 703.041 1943.74 702.775C1973.42 700.942 2060.74 793.369 2086.02 823.444C2111.38 853.627 2136.89 886.919 2159 922.412C2231.17 1038.3 2283.76 1212.05 2279.77 1373.06C2278.61 1419.98 2272.15 1466.1 2264.3 1511.35C2240.69 1647.4 2210.79 1708.17 2142.82 1801.72C2141.44 1803.61 2140.05 1805.47 2138.64 1807.3L2135.39 1805.23C2203.3 1708.79 2235.57 1655.63 2259.88 1515.2C2268.51 1465.36 2274.08 1419.18 2275.04 1367.59C2276.63 1282.13 2263.32 1203.21 2241.68 1124.9C2237.82 1110.94 2233.81 1091 2226.73 1080.29C2211.51 1057.28 2216.97 1065.3 2213.07 1034.98L2211.77 1032.61C2195.97 1003.38 2183.95 970.83 2166.8 942.893C2118.52 864.219 2064.52 803.789 2004.1 747.732C1990.99 735.566 1960.02 707.274 1944.73 707.753C1940.87 707.874 1938.02 709.897 1935.97 714.791C1931.45 725.574 1916.02 778.88 1918.13 788.819C1927.93 802.725 1943.82 807.768 1955.54 818.176C1999.02 856.799 2036.53 898.681 2073.69 949.766C2078.34 956.148 2085.92 961.845 2088.37 970.476C2087.41 976.745 2086.49 979.087 2082.63 982.355C2070.11 992.953 2048.17 993.03 2033.87 995.319C1950.18 1008.71 1859.29 1007.86 1778.88 965.886C1725.81 938.184 1675.72 912.758 1629.61 862.316C1619.51 851.273 1608.6 839.745 1599.84 826.451C1589.27 810.41 1559.53 745.462 1547.37 741.764C1534.02 737.705 1498.11 765.846 1481.89 770.091L1471.89 785.655C1514.58 902.161 1650.42 1007.15 1734.1 1043.56C1821.46 1081.56 1917.32 1097.97 2007.95 1091.28C2047.71 1088.35 2087.13 1079.83 2126.77 1075.31C2145.63 1073.16 2188.31 1045.67 2201.29 1066.77C2201.16 1070.02 2201.71 1071.98 2199.88 1074.21C2187.37 1089.43 2150.51 1084.3 2145.07 1105.38C2146.34 1126.36 2156.4 1151.21 2161.63 1170.88C2166.79 1189.87 2171.09 1209.35 2174.51 1229.2C2200.89 1381.2 2175.61 1555.02 2107.89 1675.58C2079.21 1726.64 2044.22 1757.1 2007.47 1792.6C1984.17 1815.3 1960.95 1838.19 1937.81 1861.27L1946.19 1846.31C1951.76 1840.86 2008.23 1777.72 2009.39 1775.05C2007.42 1771.95 2005.11 1771.63 2002.22 1771.61C1998.36 1771.6 1995.98 1774.32 1993.25 1777.89C1984.24 1789.69 1974.19 1800.9 1962.57 1806.07C1953.4 1810.15 1942.01 1808.69 1933.78 1800.95C1933 1800.22 1932.26 1799.42 1931.5 1798.65L1929.46 1791.17C1929.95 1791.66 1930.43 1792.15 1930.93 1792.63C1938.77 1800.26 1947.54 1805.07 1956.95 1802.31C1965.17 1799.89 2019.15 1750.23 2024.22 1739.7C2024.56 1739 2024.8 1738.21 2025.09 1737.47C2024.3 1735.1 2023.98 1732.22 2022.72 1730.36C2020.36 1726.89 2013.5 1723.85 2010.35 1721.06C1990.18 1703.22 1970.44 1683.94 1950.61 1665.25C1890.47 1608.26 1830.66 1550.46 1771.21 1491.86C1745.82 1466.52 1722.38 1437.57 1696.21 1413.67C1683.09 1401.7 1668.18 1394.05 1654.62 1383.18C1631.13 1364.35 1608.8 1342.16 1585.15 1323.73C1545.84 1293.11 1502.43 1270.29 1460.47 1249.27C1387.43 1212.69 1314.74 1203.48 1238.25 1204.79C1228 1204.96 1207.6 1201.71 1199.22 1209.5C1192.61 1215.64 1192.32 1231.46 1191.87 1241.62C1191.25 1255.66 1189.18 1272.02 1191.46 1285.62C1195.48 1291.33 1199.03 1291.33 1204.5 1291.01C1219.54 1290.16 1234.57 1286.18 1249.61 1286.37C1353.11 1287.67 1439.08 1337.45 1529.56 1408.32C1565.22 1436.25 1602.59 1465.53 1632.5 1506.61C1635.8 1511.14 1638.47 1515.46 1640.95 1521.02L1640.69 1524.96C1629.12 1530.31 1606.44 1510.05 1596.27 1501.95C1589.27 1496.37 1582.6 1490.14 1575.14 1486.01C1570.52 1487.91 1565.41 1489.83 1561.28 1493.58C1548.46 1505.19 1536.38 1521.54 1524.07 1534.63C1499.1 1561.12 1473.67 1586.62 1447.81 1611.11C1405.24 1652.02 1363.2 1694.27 1320.45 1734.73C1306.22 1748.19 1291.24 1759.68 1277.06 1773.12C1249.85 1798.9 1221.24 1828.8 1196.33 1859.31C1161.56 1901.92 1125.45 1955.74 1103.14 2014.38C1080.54 2073.79 1070.44 2139.33 1083.08 2206.68C1102.21 2308.61 1152.82 2382.39 1210.56 2438.87C1217.37 2445.52 1223.57 2454.42 1230.65 2460.24C1234.76 2463.62 1239.04 2465.89 1243.65 2463.36C1258.5 2455.22 1297.44 2424.63 1308.15 2407.65C1306.48 2400.17 1304.7 2396.44 1299.85 2392.83C1252.71 2357.78 1204.08 2285 1186.54 2209.69C1175.87 2163.91 1178.89 2116.53 1193 2073.23C1212.78 2012.58 1251.76 1955.42 1289.1 1918.74C1299.52 1908.5 1311.92 1902.59 1321.91 1892.06C1331.51 1881.95 1342.93 1863.44 1353.77 1857.59C1354.18 1857.37 1354.64 1857.44 1355.08 1857.37C1355.61 1860.46 1356.32 1863.05 1357.15 1865.97L1360.74 1867.58C1370.36 1864.47 1377.25 1853.49 1385.77 1846.78C1389.66 1843.72 1391.27 1844.39 1395.23 1846.61C1370.75 1863.59 1349.52 1891.35 1323.73 1904.64C1322.54 1909.8 1322.93 1915.13 1324.58 1920.02C1327.02 1927.22 1332.4 1932.55 1336.74 1936.93C1352.19 1952.51 1369.3 1963.96 1385.17 1978.46C1435 2023.98 1484.86 2071.03 1533.68 2118.95C1545.4 2130.47 1561.3 2142.82 1571.16 2157.59C1567.37 2156.71 1564.04 2155.12 1560.41 2153.39C1541.44 2126.86 1485.64 2079.53 1461.01 2056.98C1436.45 2034.5 1412.67 2010.12 1387.83 1988.31C1367.42 1970.39 1341.41 1952.5 1324.12 1928.7C1320.33 1923.48 1317.51 1916.06 1314.82 1909.56C1277.59 1919.34 1231.7 1995.45 1210.66 2040.19C1188.31 2087.68 1183.15 2129.47 1183.47 2186.44C1184.17 2187.72 1184.89 2188.97 1185.56 2190.27C1192.19 2203.09 1192.83 2222.65 1197.98 2237.04C1215.84 2287.01 1257.09 2355.22 1292.04 2379.68C1296.57 2382.86 1303.48 2386.95 1306.92 2392.24C1314.59 2404.02 1315.25 2427.14 1329.61 2420.14C1350.14 2410.13 1370.6 2387.23 1388.87 2370.27C1426.45 2335.51 1463.62 2299.73 1500.36 2262.97C1510.57 2252.85 1521.49 2244.62 1531.61 2234.25C1539.32 2231.56 1546.66 2221.67 1554.66 2217.44C1554.07 2218.37 1553.5 2219.32 1552.9 2220.24C1539.25 2241.06 1515.32 2254.11 1498.91 2270.44C1452.28 2316.83 1405.6 2362.43 1357.49 2405.38C1343.18 2418.16 1328.16 2428.87 1313.81 2441.49C1292.26 2460.45 1271.51 2481.89 1250.69 2502.59C1227.21 2525.94 1203.74 2548.42 1181.88 2575.22C1130.43 2638.29 1079.94 2734.57 1078.92 2838.54C1078.15 2916.51 1107.26 2992.52 1142.69 3046.55C1156.19 3067.14 1194.8 3125.06 1213.24 3127.58C1224.15 3121.57 1278.05 3073.36 1282.06 3061.92C1282.33 3061.17 1282.47 3060.32 1282.67 3059.52C1275.78 3041.73 1256.7 3027.15 1245.69 3014.04C1201.06 2960.93 1165.16 2877.84 1181.34 2789.22C1209.69 2633.92 1378.42 2518.79 1466.88 2439.25C1493.53 2415.29 1519.98 2390.49 1546.21 2365.53C1562.82 2349.73 1579.37 2332.47 1596.72 2318.63C1596.93 2318.47 1597.16 2318.37 1597.38 2318.24L1597.7 2323.26C1572.32 2352.21 1453.66 2449.96 1444.38 2467.15C1436.59 2470.65 1341.71 2553.57 1335.55 2561.97C1328.22 2573.46 1314.06 2579.72 1304.85 2588.92C1261.73 2631.99 1221.51 2682.17 1195.56 2750.41C1180.9 2788.97 1177.85 2842.67 1186.27 2885.38C1196.61 2937.83 1222.37 2976.51 1249.14 3011.53C1255.84 3020.29 1262.75 3030.77 1270.67 3036.94C1274.71 3040.09 1281.08 3043.73 1283.71 3049.52C1287.04 3056.84 1288.22 3063.42 1287.02 3072.15C1276.89 3085.8 1260.37 3092.07 1248.32 3102.06C1234.66 3113.37 1227.5 3128.71 1211.54 3136.47C1179.11 3112.74 1141.24 3056.54 1119.04 3015.16C1089.08 2959.29 1070.64 2883.66 1076.45 2811.64C1084.23 2714.97 1135.85 2621.88 1185.52 2564.14C1208.12 2537.87 1233.07 2516.43 1255.43 2490.16L1257.3 2487.95C1260.1 2486.65 1261.58 2485.28 1263.95 2482.55C1276.22 2468.41 1287.88 2455.67 1301.36 2444.54C1305.15 2441.41 1305.49 2438.19 1306.85 2432.49L1304.84 2429.88C1281.87 2430.43 1262.26 2464.16 1240.92 2471.88C1240.43 2472.06 1239.93 2472.21 1239.44 2472.37C1228.53 2466.98 1218.49 2454.64 1209.07 2444.85C1172.96 2407.32 1140.15 2367.86 1113.72 2314.57C1083.05 2252.76 1068.38 2178.97 1076.36 2101.97C1088.15 1988.15 1166.87 1884.02 1225.92 1818.62C1230.14 1817.35 1259.33 1781.69 1264.82 1775.01L1264.49 1771.36C1247.74 1761.21 1235.75 1794.98 1220.77 1800.04C1211.26 1803.25 1206.25 1799.12 1198.39 1791.21C1198.18 1790.59 1198 1789.93 1197.74 1789.34C1196.25 1785.94 1194.27 1784.11 1192.2 1781.63C1116.32 1690.74 1074.07 1574.74 1063.74 1429.56C1061.3 1395.23 1060.71 1335.26 1063.66 1300.89C1064.38 1292.53 1067.6 1285.1 1068.64 1276.76C1070.38 1262.87 1070.08 1248.47 1071.8 1234.47C1077.12 1191.21 1094.78 1102.26 1114.67 1069.49C1116.74 1066.08 1119.59 1063.07 1122.1 1060.39ZM1639.82 1038.11C1602.18 1051.06 1565.57 1067.22 1527.4 1077.15C1481.13 1089.17 1435.28 1089.79 1388.52 1089.93C1344.95 1090.06 1312.26 1090.94 1269.04 1082.3C1252.37 1078.96 1235.66 1082.21 1219.74 1072.52C1206.36 1067.55 1160.69 1057.21 1148.83 1062.27L1146.29 1066.08C1147.82 1071.85 1151.18 1074.46 1154.8 1076.92C1167.63 1085.64 1189.55 1071.65 1196.32 1095.19C1198.02 1101.08 1197.87 1108.77 1198.04 1115.09C1196.32 1117.17 1194.24 1118.74 1192.87 1121.35C1182.13 1141.79 1159.04 1269.92 1157.18 1296.42C1148.8 1415.7 1168.75 1541.47 1220.04 1635.09C1236.42 1664.97 1253.25 1691.72 1274.18 1714.41C1282.12 1723.02 1285.44 1744.95 1295.11 1748.38C1319.54 1736.32 1376.93 1672.85 1400.94 1649.35C1435.66 1615.39 1471.51 1583.24 1505.38 1547.48C1521.41 1530.55 1554.45 1488.25 1571.14 1480.71C1582.87 1475.41 1592.82 1493.36 1604.52 1490.54C1604.25 1484.5 1601.9 1481.14 1598.96 1477.22C1580.03 1451.93 1554.88 1434.4 1532.49 1417.04C1457.74 1359.08 1388.07 1313.5 1303.57 1296.86C1284.64 1293.13 1198.68 1298.91 1191.02 1293.97C1188.47 1292.33 1187.63 1282.79 1187.36 1279.23C1185.92 1260.43 1188.13 1240.75 1187.61 1221.76L1196.46 1201.91C1218.96 1200.27 1241.94 1196.96 1264.43 1197.14C1366.77 1197.96 1461.98 1235.72 1555.53 1296.49C1573.79 1308.34 1592.15 1322 1609.45 1336.74C1630.75 1354.9 1655.46 1384.06 1678.83 1393.41C1683.21 1395.16 1686.93 1394.94 1690.14 1389.61C1692.29 1386.05 1693.9 1379.34 1695.29 1374.98C1705.52 1342.73 1813 1275.9 1839.67 1262.08C1904.72 1228.38 1972.52 1209.77 2040.76 1198.28C2051.62 1196.45 2110.67 1192.66 2115.5 1187.88C2123.3 1187.78 2134.97 1186.05 2141.16 1194.48C2147.91 1203.66 2148.31 1228.92 2152.99 1241.6C2157.06 1252.59 2164.57 1259.65 2167.41 1271.68C2163.15 1276.18 2158.72 1280.53 2154.59 1285.28C2133 1285.33 2111.01 1284.28 2089.47 1286.45C1990.21 1296.47 1872.95 1345.58 1790.19 1429.08C1788.69 1430.59 1789.37 1430.12 1787.85 1430.77C1774.3 1439.32 1765.24 1448.63 1750.02 1439.84C1742.04 1435.23 1736.47 1429.46 1730.66 1420.1C1726.73 1418.34 1723.09 1415.79 1719.05 1418.03C1720.74 1425.85 1779.68 1496.37 1787.43 1502.9C1788.71 1503.98 1790.03 1504.98 1791.51 1504.89C1839.65 1552.32 1888.1 1599.05 1936.84 1645.08C1963.84 1670.8 1990.55 1699.11 2018.98 1721.14C2023.31 1724.49 2025.15 1726.97 2027.63 1733.39C2029.69 1738.73 2031.46 1742.85 2034.2 1747.45C2037.85 1749.15 2040.61 1749.72 2044.4 1748.34C2072.38 1738.12 2117.51 1651.34 2132.07 1615.02C2165.06 1532.92 2181.94 1438.53 2180.79 1342.69C2180.62 1319.21 2180.37 1295.51 2176.53 1272.63C2171.53 1254.85 2169.81 1232.34 2166.15 1213.53C2161.72 1190.73 2154.96 1169.4 2152 1145.99C2151.03 1140.86 2147.61 1135.94 2145.39 1131.73C2145.05 1130.38 2144.74 1129.01 2144.36 1127.69C2142.05 1119.7 2138.81 1087.82 2137.58 1086.58C2128.79 1077.66 2062.32 1089.38 2048.34 1092.18C2040.47 1091.75 2031.65 1095.35 2023.67 1096.38C2007.44 1098.43 1991.15 1099.37 1974.87 1099.2C1904.04 1099.44 1832.78 1084.75 1763.73 1061.34C1747.16 1055.89 1730.84 1048.81 1714.89 1040.14C1692.21 1027.56 1669.15 1011.34 1645.29 1004.87L1642.71 1004.19C1641.66 1015.48 1640.7 1026.79 1639.82 1038.11ZM1765.28 700.445C1757.85 696.881 1748.21 698.036 1740.36 696.916C1692.71 690.111 1649.89 686.778 1602.53 700.39C1601.93 700.721 1601.34 701.066 1600.74 701.384C1583.84 710.324 1564.54 708.248 1548.98 722.313L1547.63 726.976C1549.81 732.419 1551.67 734.643 1554.96 738.604C1565.9 751.768 1573.58 773.7 1582.9 789.737C1605.4 828.428 1632.78 865.163 1663.46 888.704C1672.05 895.292 1681.87 898.568 1690.69 904.537C1701.22 911.668 1712.36 926.846 1724.54 925.812C1726.2 925.671 1726.91 925.128 1728.33 924.326C1725.13 916.115 1716.46 908.569 1710.21 906.461C1705.47 904.865 1700.31 904.55 1695.48 903.953C1696.06 893.718 1695.88 882.793 1699.4 873.75C1708.63 862.65 1719.86 857.226 1729.36 846.81C1768.03 804.401 1810.85 740.944 1816.19 665.831C1821.08 597.224 1814.45 556.697 1792.37 497.059C1781.31 466.952 1768.44 438.425 1753.92 411.836C1737.87 382.375 1701.68 327.802 1675.36 324.888C1667.41 324.008 1659.01 325.224 1651.04 325.891C1599.81 378.749 1554.08 444.948 1529.3 532.471C1520.58 563.272 1515.34 595.944 1507.11 627.046C1509.29 631.026 1507.99 630.048 1511.55 630.63C1525.2 632.859 1552.12 619.429 1567.36 616.373C1636.03 602.601 1707.19 591.158 1775.85 611.171C1781.92 612.94 1795.48 612.016 1799.59 617.857C1802.73 622.338 1803.54 626.425 1803.39 632.792C1803.28 637.314 1787.06 697.624 1785.19 700.603C1779.49 705.056 1774.44 704.738 1768.4 701.96C1767.36 701.479 1766.32 700.95 1765.28 700.445ZM1255.84 973.25C1272.93 985.08 1287.71 984.958 1305.97 989.335C1369.61 1004.59 1430.6 999.375 1493.86 983.596C1506.66 980.403 1519.59 977.547 1532.31 973.733C1537.99 972.032 1543.39 968.396 1549.13 967.485C1575.05 948.791 1590.59 979.199 1613.68 993.307C1623.86 999.529 1634.37 1001.46 1645.18 1003.7C1621.24 972.454 1588.61 957.484 1564.11 927.239C1562.32 924.979 1560.73 923.384 1558.68 921.639C1541 906.588 1471.89 817.466 1468.53 788.617C1468.04 784.431 1468.4 779.411 1468.54 775.16L1466.47 770.371C1445.41 764.14 1371.93 828.929 1352.04 848.944C1331.25 869.871 1310.34 891.57 1292.09 917.385C1279.47 935.228 1268.21 955.06 1255.84 973.25Z"/><path fill="#947538" transform="scale(0.221292 0.221491)" d="M1662.32 195.772C1670 195.934 1675.09 198.822 1681.91 204.168C1702.91 220.643 1723.54 243.289 1742.63 264.387C1812.45 341.554 1874.88 437.448 1900.7 565.178C1914.13 631.63 1912.19 699.71 1889.83 761.14C1881.64 783.225 1872.2 804.216 1861.62 823.881C1846.45 851.87 1793.5 933.18 1771.27 939.143C1768.02 940.016 1765.77 939.904 1762.8 937.466C1759.02 934.354 1755.88 929.167 1751.96 925.956C1744.07 919.486 1735.4 914.148 1727.08 909.002C1719.87 904.539 1708.61 901.47 1702.68 894.466C1701.18 892.689 1700.87 889.65 1701.02 886.851C1701.29 881.657 1703.35 878.94 1705.86 875.788C1713.63 866.006 1723.36 858.796 1731.74 850.082C1747.61 833.59 1762.32 813.198 1775.83 792.589C1807.41 744.461 1823.76 691.015 1823.12 623.083C1822.28 533.896 1774.45 427.598 1732.7 368.588C1715.83 344.742 1689.1 316.062 1664.97 318.277C1614.66 322.895 1545.26 464.691 1525.4 530.159C1517.7 555.566 1515.85 594.528 1505.01 616.166C1495.5 635.157 1470.04 624.263 1459.28 643.342L1459.51 646.795C1465 651.736 1473.33 649.707 1479.49 648.615C1497.68 645.39 1515.36 637.135 1533.32 631.786C1565.49 622.509 1597.93 615.457 1630.53 610.652C1675.69 604.598 1725.07 603.933 1769.64 615.888C1776.88 617.829 1788.45 616.053 1794.62 621.891C1796.47 623.651 1797.34 627.418 1797.64 630.541C1797.85 632.784 1785.33 689.386 1784.32 691.219C1769.47 704.721 1730.3 687.824 1712.93 685.209C1702.55 683.647 1691.85 684.051 1681.42 684.077C1656.99 684.138 1633.79 690.475 1609.59 692.816C1601.11 694.195 1593.11 697.937 1584.81 700.572C1506.09 725.619 1430.75 770.362 1361.93 832.927C1328.84 863.595 1299.49 897.902 1272.26 939.561C1266.45 948.456 1255.59 959.931 1254.26 972.802C1253.92 976.18 1254.62 978.542 1256.32 980.889C1265.61 993.686 1285.56 990.53 1297.34 993.219C1349.62 1005.16 1403.41 1010.04 1456.12 999.063C1480.81 993.916 1506.35 989.255 1530.53 980.106C1541.29 976.033 1557.45 964.917 1568.26 967.051C1578.83 969.136 1587.27 983.301 1596.22 990.854C1607.33 1000.23 1630.63 1006.7 1637.34 1023.53C1638.72 1026.98 1638.12 1026.33 1637.08 1030.57C1629.18 1039.53 1610.22 1043.08 1600.43 1046.81C1518.93 1077.86 1454.59 1085.84 1371.02 1085.38C1349.59 1085.27 1327.43 1086.55 1306.1 1083.22C1283.13 1079.63 1259.76 1076.62 1236.94 1071.45C1211.31 1065.65 1166.5 1048.31 1141.9 1052.82C1138.2 1053.5 1135.54 1054.07 1131.83 1052.92C1129.56 1048.46 1127.9 1045.14 1128.26 1039.24C1129.17 1024.55 1145.19 1000.1 1150.84 986.581C1190.5 891.798 1281.36 781.874 1347.65 731.605C1377.94 708.633 1412.43 693.863 1438.49 660.556C1436.85 657.068 1435.28 653.517 1433.76 649.906C1429.07 638.673 1430.91 629.323 1432.74 617.143C1447.45 519.254 1487 417.28 1533.59 345.834C1566.69 295.07 1621.99 234.291 1662.32 195.772Z"/><path fill="#947538" transform="scale(0.221292 0.221491)" d="M1118.35 1072.4C1128.69 1071.88 1187.26 1092.29 1194.33 1099.42C1190.57 1119.29 1184.14 1138.38 1179.13 1157.64C1171.65 1187.22 1165.18 1217.34 1159.73 1247.89C1152.03 1292.31 1150.88 1332.24 1152.69 1377.89C1157.24 1492.85 1183.28 1581.88 1234.42 1667.75C1239.62 1676.49 1244.71 1685.65 1250.35 1693.78C1257.85 1704.6 1274.33 1718.09 1278.31 1731.9C1280.28 1738.74 1279.82 1740.1 1278.22 1746.7C1271.57 1757.03 1260.34 1761.41 1251.16 1763.66C1248.28 1766.26 1245.48 1768.72 1242.88 1771.93C1232.59 1784.65 1222.34 1790.69 1209.75 1796.54C1198.89 1783.1 1188.2 1769.37 1177.68 1755.34C1110.98 1667.62 1070.88 1543.04 1066.58 1410.14C1063.16 1322.56 1078.49 1139.56 1118.35 1072.4Z"/><path fill="#947538" transform="scale(0.221292 0.221491)" d="M2099.22 1196.23C2112.75 1195.5 2126.46 1193.88 2139.84 1197.57C2140.56 1202.96 2141.38 1208.33 2142.06 1213.72C2144.6 1233.67 2152.61 1249.97 2156.66 1269.23C2155.79 1273.89 2156.45 1273.42 2154.12 1276.1C2150.99 1279.69 2147.83 1280.85 2143.98 1281.13C2125.47 1282.49 2106.54 1280.44 2087.92 1281.38C2072.69 1282.15 2057.23 1286.23 2042.15 1289.5C1987.68 1301.31 1934.77 1319.34 1883.52 1349.65C1861.65 1362.59 1839.73 1377.63 1819.17 1394.83C1804.81 1406.84 1786.88 1431.8 1771.41 1437.84C1767.3 1439.45 1763.22 1438.43 1759.08 1437.59C1749.29 1430.27 1702.01 1394.28 1698.47 1383.23C1698.86 1376.47 1700.18 1372.24 1703.33 1367.43C1714.62 1350.2 1741.78 1333.26 1756.96 1322.33C1864.07 1245.5 1980.57 1202.58 2099.22 1196.23Z"/><path fill="#FCFCFA" fill-opacity="0.0078431377" transform="scale(0.221292 0.221491)" d="M2048.34 1092.18C2062.32 1089.38 2128.79 1077.66 2137.58 1086.58C2138.81 1087.82 2142.05 1119.7 2144.36 1127.69C2144.74 1129.01 2145.05 1130.38 2145.39 1131.73C2141.66 1135.61 2141.06 1135.88 2140.21 1142.97C2139.12 1152.1 2140.9 1162.72 2144.39 1170.34C2145.57 1172.92 2147.05 1174.99 2148.53 1177.16L2150.58 1176.54L2152 1145.99C2154.96 1169.4 2161.72 1190.73 2166.15 1213.53C2169.81 1232.34 2171.53 1254.85 2176.53 1272.63L2167.41 1271.68C2164.57 1259.65 2157.06 1252.59 2152.99 1241.6C2148.31 1228.92 2147.91 1203.66 2141.16 1194.48C2134.97 1186.05 2123.3 1187.78 2115.5 1187.88L2117.78 1181.83C2121.41 1178.37 2124.97 1179.48 2129.06 1179.08C2132.57 1178.73 2135.66 1179.17 2138.12 1175.13C2135.66 1173.92 2134.4 1172.95 2132.11 1170.79L2133.88 1163.9L2132.29 1159.3C2116.65 1147.39 2099.15 1179.07 2083.51 1168.46C2077.1 1164.12 2076.17 1154.06 2074.54 1144.94C2073.62 1139.82 2072.33 1138.99 2069.85 1135.37C2072.77 1132.96 2074.63 1131.61 2077.98 1130.94C2080.97 1130.34 2083.6 1129.81 2086.43 1128.23C2092.64 1124.77 2093.55 1118.48 2096.4 1110.81C2101.67 1096.61 2119.95 1098.08 2130.15 1094.25C2102.97 1091.54 2075.42 1096.31 2048.34 1092.18Z"/><path fill="#FCFCFA" fill-opacity="0.11372549" transform="scale(0.221292 0.221491)" d="M1564.11 927.239C1588.61 957.484 1621.24 972.454 1645.18 1003.7C1634.37 1001.46 1623.86 999.529 1613.68 993.307C1590.59 979.199 1575.05 948.791 1549.13 967.485C1556.52 952.002 1569.59 954.936 1581.2 950.491C1573.59 944.718 1569.53 940.628 1565.01 929.491L1564.11 927.239Z"/><path fill="#FCFCFA" fill-opacity="0.011764706" transform="scale(0.221292 0.221491)" d="M1602.53 700.39C1649.89 686.778 1692.71 690.111 1740.36 696.916C1748.21 698.036 1757.85 696.881 1765.28 700.445C1740.63 705.432 1713.14 700.813 1688.09 700.66C1659.83 700.486 1630.62 704.175 1602.53 700.39Z"/><path fill="#FCFCFA" fill-opacity="0.10588235" transform="scale(0.221292 0.221491)" d="M1198.04 1115.09C1197.87 1108.77 1198.02 1101.08 1196.32 1095.19C1189.55 1071.65 1167.63 1085.64 1154.8 1076.92C1151.18 1074.46 1147.82 1071.85 1146.29 1066.08L1148.83 1062.27C1160.69 1057.21 1206.36 1067.55 1219.74 1072.52C1213.08 1072.45 1201.29 1070.41 1196.08 1076.78C1196.41 1081.27 1197.28 1084.62 1198.31 1088.8C1200.18 1096.4 1201.46 1103.99 1199.14 1111.72C1198.8 1112.86 1198.41 1113.96 1198.04 1115.09Z"/><path fill="#FCFCFA" fill-opacity="0.16862746" transform="scale(0.221292 0.221491)" d="M1791.51 1504.89C1790.03 1504.98 1788.71 1503.98 1787.43 1502.9C1779.68 1496.37 1720.74 1425.85 1719.05 1418.03C1723.09 1415.79 1726.73 1418.34 1730.66 1420.1C1736.47 1429.46 1742.04 1435.23 1750.02 1439.84C1765.24 1448.63 1774.3 1439.32 1787.85 1430.77C1787.38 1431.51 1786.91 1432.26 1786.43 1433C1777.35 1446.96 1758.5 1450.74 1758.46 1461.92C1766.77 1481.88 1783.21 1487.07 1791.51 1504.89Z"/><path fill="#FAFDFC" fill-opacity="0.29019609" transform="scale(0.221292 0.221491)" d="M2141.83 1876.02L2144.75 1875.03C2147.08 1876.39 2149.5 1877.6 2151.81 1879.01C2189.45 1902.03 2247.27 2002.41 2261.58 2059.27C2277.08 2120.8 2275.52 2189.07 2257.26 2248.87C2239.75 2306.27 2210.47 2359.63 2180.21 2403.24C2166.33 2423.24 2151.41 2442.24 2136.42 2460.34C2127.98 2470.53 2118 2480.35 2110.42 2491.88C2107.87 2495.74 2107.45 2495.95 2107.31 2501.57C2111.96 2505.62 2117.12 2505.47 2121.53 2509.87C2132.6 2520.91 2143.06 2535.9 2153.26 2548.73C2199 2606.22 2251.82 2680.38 2267.39 2769.61C2270.44 2787.09 2274.28 2807.69 2274.37 2825.8C2274.53 2858.61 2261.91 2932.99 2250.31 2962.51C2231.16 3011.22 2185.29 3074.48 2155.26 3109.54C2141.21 3125.94 2124.89 3140.18 2112.14 3158.7C2107.81 3164.99 2101.22 3175.31 2101.15 3184.78C2104.95 3186.65 2106.91 3186.18 2110.52 3183.35C2114.26 3180.43 2117.92 3175.71 2121.31 3171.93C2137.76 3181.6 2149.61 3197.47 2162.87 3214.5C2173.13 3227.68 2183.96 3240.48 2193.37 3255.03C2220.87 3297.53 2248.08 3358.94 2263.72 3413.38C2287.47 3496.03 2295.69 3603.45 2286.68 3692.77C2280.8 3751.01 2267.68 3809.5 2252.81 3863.91C2246.1 3888.44 2236.95 3905.09 2235.17 3932.89C2234.64 3933.58 2234.1 3934.26 2233.57 3934.97C2211.88 3964.25 2199.44 4008.39 2178.22 4039.97C2109.47 4142.27 2043.79 4215.06 1957.24 4279.92C1938.8 4293.74 1918.96 4302.08 1900.66 4316.16C1898.75 4317.63 1896.82 4319.03 1894.91 4320.47C1900.66 4328.14 1906.97 4334.88 1907.82 4347.22C1908.92 4363.18 1903.55 4380.62 1900.15 4395.57C1884.73 4463.57 1866.34 4520.87 1834.15 4575.4C1803.94 4626.56 1764.75 4670.52 1725.95 4706.36C1711.53 4719.68 1696.02 4730.64 1682.32 4745.6C1662.54 4745.55 1643.11 4737.24 1626.4 4720.82C1585.98 4679.69 1560.32 4663.96 1526.02 4605.1C1490.89 4548.33 1465.24 4493.35 1449.12 4418.75C1435.29 4354.7 1432.85 4283.63 1453.58 4222.39C1454.6 4216.1 1455.95 4212.76 1458.57 4207.65C1478.46 4146.32 1524.05 4065.1 1567.78 4042.14C1580.71 4035.35 1590.5 4035.1 1603.77 4038.61C1597.99 4032.79 1592.18 4026.79 1585.49 4023.61C1557.21 4010.2 1526.05 4004.75 1496.84 3997.02C1462.11 3987.84 1426.49 3976.19 1391.35 3972.25C1355.73 3968.26 1292.86 3967.29 1258.94 3977.4C1253.96 3978.88 1249.11 3981.33 1244.35 3983.93C1254.46 3997.69 1260.91 4014.89 1270.38 4028.88C1307.27 4082.91 1348.55 4129.76 1393.24 4168.33C1403.13 4176.78 1424.1 4190.34 1424.45 4210.3C1424.85 4232.89 1416.19 4248.22 1420.8 4272.62C1420.57 4280.1 1420.75 4285.2 1417.38 4291.27C1413.03 4294.47 1409.23 4295.31 1404.5 4296.23C1400.77 4293.73 1397.94 4289.7 1394.3 4286.84C1379.25 4275.03 1362.12 4268.19 1346.77 4256.42C1278.93 4205.67 1217.53 4137.51 1165.34 4055.02C1149.3 4029.6 1107.87 3948.03 1108.86 3914.54C1109.01 3909.43 1110.03 3900.84 1109.35 3896.07C1107.57 3883.63 1092.66 3879.95 1089.73 3865.4C1081.16 3822.88 1071.46 3778.77 1065.56 3735.25C1050.63 3625.11 1053.46 3496.22 1088.11 3394.59C1129.8 3272.3 1207.56 3168.78 1283.65 3094.99C1304.72 3074.54 1328.54 3059.34 1350.41 3040.65C1383.58 3012.28 1415.94 2979.62 1448.32 2949.2L1533.39 2869.44C1547.25 2856.5 1561.36 2838.7 1576.95 2831.16L1588.1 2843.12C1590.99 2844.48 1594.09 2845.96 1596.71 2848.3C1604.33 2855.13 1611.29 2865.34 1618.97 2872.68C1629.76 2882.99 1641.39 2890.84 1651.85 2901.9C1651.23 2910.99 1650.49 2922.33 1645.36 2928.53C1633.77 2942.55 1618.48 2950.66 1605.56 2961.81C1572.8 2990.08 1540.72 3020.26 1507.92 3048.46C1472.88 3078.59 1436.05 3106.08 1403.61 3142.54C1401.01 3145.46 1399.76 3148.37 1398.28 3152.62C1395.59 3154.42 1392.93 3156.26 1390.22 3157.96C1363.48 3174.6 1337.05 3213.09 1312.8 3237.02C1289.53 3241.92 1228.54 3340.56 1214.02 3369.31C1178.02 3440.58 1164.6 3516.1 1164.45 3604C1164.42 3623.34 1164.14 3642.89 1165.91 3662.08C1167.8 3682.61 1172.1 3702.26 1174.11 3722.77C1178.99 3709.81 1185.28 3687.08 1195.75 3683.15C1210.53 3677.62 1261.38 3681.44 1280.43 3680.69C1306.11 3679.67 1332.75 3673.16 1357.87 3665.07C1397.42 3652.33 1439.76 3633.72 1476.23 3607.52C1500.47 3590.1 1525.89 3571.28 1548.77 3550.31C1556.03 3543.66 1567.77 3525.72 1575.36 3523.65C1591.1 3519.36 1605.19 3544.14 1619.67 3545.18C1614.85 3535.15 1609.86 3524.16 1603.38 3516.43C1595.9 3507.53 1586.4 3501.31 1578.51 3492.87C1567.02 3480.58 1556.31 3466.41 1544.75 3454C1515.16 3422.21 1384.35 3285.6 1359.4 3277.32C1358.72 3277.1 1358.02 3277.1 1357.33 3276.99C1349.27 3274.07 1340.79 3275.21 1332.61 3273.41C1327.92 3272.39 1326.03 3271.67 1323.31 3265.87C1323.38 3263.11 1323.33 3261.01 1323.96 3258.27C1328.39 3239.18 1393.31 3177.32 1406.93 3169.52C1422.04 3176.4 1438.46 3196.82 1452.1 3209.38C1495.3 3249.37 1538.09 3290.38 1580.43 3332.4C1607.7 3359.24 1634.75 3388.61 1663.56 3411.6C1664.28 3412.22 1664.99 3412.87 1665.72 3413.47C1669.39 3416.49 1667.69 3415.23 1671.35 3417.16C1680.26 3421.85 1687.27 3434.56 1695.67 3441.07C1698.97 3445.59 1702.35 3449.92 1705.11 3455.22C1704.46 3454.79 1703.8 3454.37 1703.15 3453.94C1688.4 3444.04 1674.58 3428.55 1660.59 3416.19C1598.46 3361.29 1539.07 3298.65 1478.08 3240.84C1458.22 3222.02 1437.13 3198.43 1415.63 3184.67C1411.06 3181.74 1406.56 3179.55 1401.71 3182.06C1388.12 3189.1 1343.25 3236.48 1331.73 3252.64C1329.02 3256.43 1326.09 3259.7 1323.1 3262.96C1336.38 3265.66 1351.98 3266.8 1364.63 3273.55C1389.67 3286.91 1413.62 3314.95 1435.8 3336.83C1470.1 3370.66 1505.13 3403.56 1538.38 3439.68C1561.23 3464.49 1584.4 3489.12 1607.01 3514.36C1618.41 3527.07 1629.05 3541.15 1641.04 3552.68C1668.22 3578.81 1697.48 3601.81 1726.11 3624.16C1746.89 3640.37 1767.57 3657.73 1788.9 3672.24C1865.06 3724.32 1946.25 3757.94 2029.43 3771.86C2057.66 3776.51 2118.96 3791.22 2144.18 3776.81C2152.12 3763.91 2146.96 3712.19 2147.52 3692.66C2121.15 3686.94 2094.39 3687.83 2067.94 3683.75C1997.42 3672.88 1920.04 3646.14 1856 3599.81C1843.16 3590.52 1831.16 3578.64 1818.68 3568.34C1803.74 3556.02 1775.74 3537.42 1764.75 3518.58C1763.33 3516.15 1762.32 3512.88 1761.29 3510.07C1765.53 3513.7 1769.23 3517.7 1773.06 3522.22C1780 3524.43 1832.24 3574.08 1843.92 3583.65C1854.75 3592.51 1866.13 3599.51 1877.59 3606.26C1941.75 3644.78 2009.25 3669.31 2078.05 3679.09C2098.15 3682.22 2119.69 3677.9 2139.3 3682.47C2142.22 3683.15 2146.22 3684.73 2148.46 3687.85C2154.3 3696 2148.31 3753.64 2157.99 3774.04L2160.81 3774.18C2161.21 3773.41 2161.65 3772.69 2162.01 3771.87C2167.47 3759.4 2176.18 3720.27 2177.85 3705.53C2182.54 3664.34 2181.38 3572 2176.05 3531.23C2164.74 3444.82 2140.32 3355.12 2094.66 3296.39C2085.3 3284.35 2073.99 3275.36 2063.8 3264.98C2054.64 3255.66 2054.88 3247.38 2052.95 3231.96C2048.22 3233.29 2043.28 3234.84 2038.87 3237.86C2014.38 3254.66 1991.24 3278.95 1967.34 3298C1943.33 3317.15 1916.69 3331.98 1893.72 3353.54C1868.17 3377.53 1844.03 3406.05 1818.9 3431.23C1811.01 3439.15 1786.32 3468.46 1779.61 3469.38C1773.19 3473.24 1765.63 3479.2 1758.55 3477.84C1746.47 3475.52 1739.36 3457.15 1732.38 3443.99C1739.89 3450.05 1745.27 3461.15 1752.57 3467.75C1758.11 3472.76 1764.81 3471.8 1770.72 3469.13C1794.86 3458.26 1866.42 3372.1 1893.89 3346.18C1913.47 3327.71 1936.16 3314.79 1956.85 3299.19C1987.87 3275.81 2018.38 3249.38 2048.39 3223.21C2072.87 3201.88 2094.25 3172.38 2116.33 3146.05C2162.55 3090.92 2221.5 3030.77 2249.74 2951.07C2270.09 2893.61 2274 2820.19 2260.95 2758.42C2243.26 2674.69 2190.81 2603.36 2147.01 2548.45C2138.35 2537.59 2128.45 2522.14 2118.38 2514.97C2102.57 2503.72 2090.84 2530.13 2077.15 2538.06L2075.12 2536.43C2076.34 2530.48 2078.13 2526.2 2080.95 2521.71C2092.96 2502.66 2108.43 2486.52 2122.15 2470.28C2143.63 2444.88 2165.45 2417.92 2184.66 2388.7C2210.83 2348.91 2235.44 2302.51 2251.53 2251.98C2270.62 2191.38 2272.76 2121.83 2257.46 2058.85C2244.6 2005.37 2184.98 1905.76 2149.64 1883.09C2147.12 1881.47 2145.59 1880.92 2143.38 1878.17C2142.84 1877.5 2142.35 1876.73 2141.83 1876.02ZM1197.41 3873.96C1203.94 3876.85 1211.08 3880.7 1217.86 3881.64C1234.45 3883.92 1252.37 3878.28 1269.06 3877.27C1304.84 3875.1 1341.01 3875.28 1376.82 3875.88C1408.36 3876.41 1440.52 3882.02 1471.85 3887.53C1519.43 3895.89 1567.87 3911.74 1614.05 3930.63C1635.11 3939.25 1673.24 3964.59 1691.94 3965.69C1697.23 3967.97 1701.35 3970.59 1706.77 3967.54C1710.17 3963.17 1711.01 3959.87 1712.66 3953.6C1714.2 3947.75 1715.3 3942.44 1719.25 3939.23C1727.69 3932.34 1741.45 3929.88 1750.92 3925.34C1837.82 3884.51 1928.49 3864.61 2019.55 3866.37C2032.88 3866.45 2046.33 3866.08 2059.65 3867.18C2077.72 3868.67 2126.8 3883.83 2141.13 3870.08C2142.29 3860.19 2141.47 3849.44 2143.38 3839.97C2149.12 3811.58 2155.88 3821.1 2154.35 3781.1C2132.14 3792.61 2110.81 3788.36 2087.72 3786.77C2011.15 3781.5 1944.27 3760.79 1871.57 3725.74C1842.37 3711.66 1812.37 3696.28 1784.7 3676.36C1754.57 3654.67 1724.76 3629.99 1695.38 3605.99C1685.88 3598.23 1674.74 3584.92 1664.76 3579.72C1661.46 3578 1657.07 3578.15 1653.6 3577.99C1653.02 3589.04 1651.55 3596.39 1645.82 3603.89C1631.76 3622.3 1612.09 3634.49 1595.53 3647.11C1483.37 3732.66 1413.7 3757.59 1289.64 3778.29C1266.09 3782.22 1223.06 3789.99 1200.63 3785.18C1196.36 3784.27 1192.65 3780.88 1188.91 3777.82L1185.92 3779.27C1182.11 3801.33 1197.66 3843.35 1197.41 3873.96ZM1892.74 4206.69C1893.24 4206.55 1893.74 4206.43 1894.24 4206.29C1895.01 4206.07 1895.79 4205.81 1896.56 4205.6C1902.74 4203.94 1905.26 4201.58 1910.05 4195.49L1909.86 4191.28C1940.69 4166.63 1968.98 4142.49 1997.66 4112.31C2010.87 4098.41 2021.98 4080.32 2034.24 4064.67C2046.45 4049.1 2091.5 4001.72 2092.7 3979.18C2092.89 3975.62 2091.06 3974.56 2089.5 3972.35C2081.43 3968.86 2072.44 3972.48 2064.03 3971.86C1986.05 3966.16 1927.54 3971.3 1850.72 3995.38C1825.96 4003.14 1801.06 4019.58 1775.91 4021.74C1771.91 4022.08 1773.65 4020.99 1770.83 4024.05C1781.98 4053.91 1808.44 4073.64 1825.04 4097.08C1842.64 4121.94 1857.67 4156.65 1877.92 4176.36L1877.35 4180.51L1880.41 4185.9C1879.56 4198.85 1867.12 4207.01 1867.36 4215.11C1869.9 4214.98 1871.27 4215.62 1873.4 4213.43C1880.34 4206.32 1884.6 4206.11 1892.74 4206.69ZM1165.01 3868.57C1159.87 3870.24 1155.62 3870.98 1151.74 3876.8C1152.21 3880.22 1151.66 3880.16 1153.73 3881.66C1157.77 3884.57 1163.08 3883.44 1167.47 3883.27C1170.98 3882.24 1172.79 3881.81 1175.33 3877.91C1174.55 3873.38 1175.35 3873.94 1173.19 3872.1C1170.55 3869.85 1167.94 3869.37 1165.01 3868.57ZM1657.2 4079.44C1655.35 4091.96 1655.15 4103.59 1647.51 4111.05C1637.27 4121.04 1626.39 4129.55 1616.42 4140.19C1592.73 4165.49 1552.15 4216.33 1545.96 4261.48C1545.49 4264.91 1545.62 4265.78 1545.72 4268.85L1547.41 4270.44C1548.33 4269.74 1549.23 4269 1550.17 4268.35C1554.94 4265.06 1559.84 4265.75 1564.93 4266.41C1576.09 4267.86 1585.87 4273.68 1596.71 4276.35C1628.39 4284.16 1659.57 4287.65 1691.64 4287.47C1712.19 4287.8 1793.94 4267.6 1806.84 4247.62C1807.39 4246.78 1807.88 4245.88 1808.4 4245L1807.84 4241.38C1802.99 4237.44 1799.08 4235.45 1793.68 4233.88C1784.68 4222.79 1779.25 4206.42 1771.23 4193.66C1749.45 4159 1689.98 4078.64 1657.2 4079.44ZM1533.35 4350.85C1528.06 4394.17 1542.73 4439.32 1559.06 4474.44C1576.46 4511.84 1637.21 4611.61 1668.05 4619.78C1679.03 4622.7 1686.64 4613.47 1694.92 4604.04C1720.53 4574.87 1746.95 4539.36 1767 4501.31C1780.42 4477.33 1791.48 4448.74 1799.68 4420.03C1803.91 4405.18 1807.6 4387.21 1813.47 4373.65C1815.99 4367.81 1820.43 4364.76 1824.46 4361.78L1824.83 4358.01C1818.67 4352.67 1810.61 4357.08 1804.22 4359.63C1795.75 4363.02 1787.24 4367.75 1778.63 4370.14C1734.27 4382.48 1581.49 4394.46 1545.18 4362.92C1541.32 4359.57 1538.48 4355.81 1534.96 4352.06C1534.47 4351.54 1533.88 4351.25 1533.35 4350.85Z"/><path fill="#947538" transform="scale(0.221292 0.221491)" d="M2158.39 3874.73C2153.09 3866.71 2146.69 3859.72 2147.02 3847.39C2147.34 3835.19 2156.13 3822.41 2159.16 3811.05C2161.02 3804.1 2160.74 3796.05 2162.37 3788.82C2166.18 3771.95 2171.73 3756.07 2175.42 3738.99C2182.7 3705.37 2183.25 3673.32 2183.74 3638.35C2185.34 3522.46 2171.52 3433.56 2125.5 3337.67C2112.72 3311.03 2092.36 3287.46 2074.87 3268.09C2072.42 3265.38 2064.01 3257.98 2062.83 3254.9C2061.84 3252.29 2062.03 3249 2061.63 3246.05C2062.17 3243.67 2062.42 3241.1 2063.24 3238.91C2065.16 3233.8 2074.18 3227.33 2077.77 3224.16C2087.93 3215.2 2098.66 3206.83 2108.32 3196.69C2111.96 3192.87 2115.01 3187.17 2118.63 3183.71C2121.91 3180.59 2127.09 3183.1 2130.45 3185.02C2139.94 3190.41 2148.52 3203.76 2156.26 3213.47C2201.23 3269.91 2240.34 3342.23 2262.38 3424.58C2300.77 3568.03 2288.71 3725.09 2248.62 3864.71C2248.08 3866.57 2247.59 3868.45 2247.05 3870.31C2238.42 3900.09 2230.73 3883.62 2233.09 3928.27C2232.63 3928.79 2232.15 3929.3 2231.69 3929.84C2211.73 3953.69 2198.09 4001.35 2179.57 4030.49C2108.34 4142.58 2015.52 4243.42 1918.61 4298.03C1908.17 4303.91 1898.05 4311.65 1887.17 4315.47L1877.16 4335.97C1866.65 4335.2 1857.69 4332.72 1848.21 4340.66C1844.67 4343.62 1841.04 4347.31 1837.06 4348.71C1828.41 4351.77 1818.89 4347.59 1810.15 4349.66C1797.2 4352.71 1785.07 4362.52 1771.96 4365.46C1710.06 4378.79 1647.29 4380.49 1585.11 4370.5C1573.61 4368.54 1553.69 4368.1 1545.4 4355C1540.25 4346.87 1540.12 4333.3 1541.13 4322.96C1542.53 4308.55 1546.82 4287.02 1554.86 4277.65C1560.35 4271.26 1567.22 4273.34 1573.57 4275C1653.86 4296 1711.04 4305.86 1790.69 4266.2C1804.6 4259.27 1817.77 4249.47 1831.5 4241.82C1847.76 4232.76 1868.11 4228.16 1882.62 4214.25C1885.81 4211.2 1889.3 4209.01 1892.74 4206.69C1893.24 4206.55 1893.74 4206.43 1894.24 4206.29C1895.01 4206.07 1895.79 4205.81 1896.56 4205.6C1902.74 4203.94 1905.26 4201.58 1910.05 4195.49C1946.45 4183.44 2073.75 4037.74 2093.61 3990.32C2095.87 3984.94 2096.59 3980.84 2096.74 3974.39C2094.78 3969.27 2093.46 3967.41 2089.48 3966.04C2080.85 3963.07 2070.94 3966.15 2062.06 3965.38C2046.98 3964.07 2031.97 3961.38 2016.85 3961.2C1962.15 3960.56 1904.9 3970.89 1851.5 3988.17C1842.43 3991.1 1789.09 4013.56 1788.04 4013.55C1773.82 4013.46 1729.21 3978.24 1721.17 3960.63C1719.53 3957.03 1719.57 3956.78 1718.55 3953.22C1719.82 3947.53 1721.24 3945.51 1724.79 3942.59C1734.35 3934.73 1747.46 3933.88 1757.9 3929.5C1766.76 3925.78 1775.14 3920.08 1784.09 3916.54C1869.8 3883.41 1958.17 3868.35 2046.65 3871.79C2085.05 3872.86 2119.6 3888.34 2158.39 3874.73Z"/><path fill="#947538" transform="scale(0.221292 0.221491)" d="M1569.82 2840.76C1575.12 2840.48 1577.52 2841.49 1582.07 2845.59C1582.78 2846.23 1583.47 2846.9 1584.18 2847.55C1595.61 2857.96 1640.45 2898.5 1645.47 2911.79C1645.36 2922.72 1640.25 2925.93 1634.4 2931.29C1576.11 2984.72 1515.2 3032.7 1456.37 3084.89C1431.18 3107.24 1407.55 3133 1382.91 3156.57C1327.38 3209.69 1267.54 3264.58 1224.55 3340.42C1170.28 3436.18 1154.67 3539.38 1161.99 3663.08C1163.54 3689.33 1164.72 3724.2 1178.96 3741.98C1175.64 3785.98 1193.57 3837.77 1191.19 3855.32C1190.39 3861.22 1188.72 3864.74 1184.99 3867.08C1180.03 3870.19 1171.75 3865.21 1166.66 3863C1155.53 3863.43 1142.14 3875.8 1130.75 3879.93C1122.33 3882.99 1112.5 3882.15 1103.85 3882.38L1092.09 3864.75C1092.05 3863.94 1091.99 3863.14 1091.97 3862.33C1090.99 3827.99 1080.2 3794.74 1074.08 3761.71C1059.73 3684.32 1057.8 3580.15 1068.3 3501.29C1087.54 3356.71 1157.32 3247.53 1232.27 3160.26C1250.84 3138.63 1269.48 3116.67 1289.34 3097.74C1309.94 3078.12 1332.97 3064.53 1353.75 3045.21L1495 2911.47C1520.04 2887.92 1545.26 2865.54 1569.82 2840.76Z"/><path fill="#947538" transform="scale(0.221292 0.221491)" d="M1314.48 4221.56C1307.22 4213.57 1298.31 4207.65 1290.59 4200.46C1275.54 4186.42 1260.78 4171.29 1246.25 4156.05C1197.3 4104.71 1134.65 4009.59 1113.59 3925.07C1111.63 3917.22 1111.14 3911.39 1113.42 3903.46C1115.9 3900.17 1118.09 3898.33 1121.26 3897.08C1134.28 3891.94 1178.3 3885.18 1192.36 3885.45C1205.39 3885.69 1218.4 3889.43 1231.46 3888.63C1251.49 3887.41 1271.31 3881.98 1291.44 3881.12C1414.43 3875.86 1525.18 3897.95 1643.11 3951.06C1677.22 3966.42 1710.93 3978.72 1742.12 4005.36C1762.08 4022.41 1810.41 4083 1827.06 4108.1C1842.36 4131.16 1857.49 4162.77 1876.16 4179.49C1876.55 4179.84 1876.96 4180.17 1877.35 4180.51C1877.37 4182.57 1877.45 4184.01 1877.14 4186.1C1875.8 4195.18 1859.97 4208.06 1854.43 4213.62C1851.82 4213.72 1849.22 4213.96 1846.62 4214.06C1833.92 4214.54 1826.06 4230.15 1814.25 4233.1C1808.74 4234.47 1800.79 4231.62 1795.23 4230.5C1794.48 4228.73 1793.74 4226.95 1792.93 4225.24C1749.51 4133.99 1656.65 4048.15 1585.67 4016.54C1567.34 4008.38 1547.81 4004.59 1529 3999.32C1490.92 3988.89 1452.8 3978.86 1414.64 3969.21C1388.85 3962.94 1288.43 3962.34 1262.54 3968.22C1258.26 3969.19 1252.93 3971.39 1249.72 3976.04C1247 3980 1245.92 3984.45 1246.6 3990.02C1250.71 4024.1 1341.06 4126.86 1363.27 4148.35C1379.79 4164.33 1402.09 4177.26 1416.15 4197.44C1418.58 4200.93 1418.66 4201.98 1418.88 4206.86C1419.04 4210.43 1418.91 4211.17 1418.63 4215.03C1417.66 4228.64 1415.69 4242.38 1415.53 4256.09C1415.45 4262.26 1416.62 4269.34 1416.16 4275.29C1415.66 4281.65 1414.34 4282.5 1411.13 4285.71C1390.83 4289.53 1332.76 4238.54 1314.48 4221.56Z"/><path fill="#947538" transform="scale(0.221292 0.221491)" d="M1576.25 4046.8C1579.98 4045.82 1584.41 4044.76 1588.16 4045.76C1596.64 4048.03 1634.74 4071.62 1642.19 4079.12C1646.54 4083.49 1649.02 4087.83 1650.04 4095.75C1647.28 4112.12 1624.56 4123.76 1615.64 4133.66C1593.51 4158.19 1572.6 4187.31 1556 4220.31C1546.51 4239.17 1530.05 4273.46 1528.86 4297.57C1528.23 4310.31 1529.46 4323.26 1529.06 4336.03C1528.5 4353.63 1527.04 4369.69 1528.99 4387.33C1539.04 4478.37 1600 4563.37 1648.43 4612.8C1656.83 4621.38 1665.64 4629.28 1676.11 4625.75C1709.9 4614.33 1775.96 4497.45 1792.95 4454.78C1803.03 4429.5 1807.79 4400.26 1818.54 4375.56L1819.79 4372.75C1835.11 4363.94 1881.64 4327.41 1896.32 4337.87C1899.97 4340.47 1901.77 4344.84 1902.53 4350.66C1904.08 4362.55 1892.9 4420.81 1887.34 4431.54C1884 4457.67 1871.59 4487.62 1862.03 4509.72C1849.63 4538.73 1835.32 4565.8 1819.33 4590.54C1794.02 4629.09 1708.77 4729.79 1675.45 4738.16C1650.36 4744.46 1590.06 4679.66 1569.64 4656.1C1512.83 4590.55 1453.68 4476.77 1444.91 4367.36C1437.75 4278.04 1455.71 4209.11 1492.38 4139.3C1510.71 4104.38 1545.79 4052.15 1576.25 4046.8Z"/><path fill="#947538" transform="scale(0.221292 0.221491)" d="M1575.24 3531.99C1575.72 3531.96 1576.21 3531.91 1576.7 3531.89C1577.48 3531.86 1578.27 3531.89 1579.05 3531.85C1581.23 3531.72 1582.11 3531.37 1584.08 3531.74C1598.13 3534.34 1610.54 3556.95 1623.49 3564.86C1631.74 3569.9 1640.3 3569.37 1646.06 3580.83C1646.83 3586.66 1647.68 3589.74 1645.29 3595.15C1637.42 3612.97 1609.25 3629.77 1596.59 3639.66C1516.81 3701.97 1434.12 3744.69 1344.94 3763.17C1315.28 3769.31 1285.49 3771.65 1255.79 3777.09C1240.49 3778.62 1214.64 3786.77 1200.85 3777.59C1188.87 3769.61 1186.22 3754.12 1181.55 3737.34C1184.32 3721.13 1185.83 3695.77 1198.16 3689.8C1199.02 3689.38 1290.36 3685.41 1299.22 3684.79C1396.01 3677.99 1494.45 3607.98 1575.24 3531.99Z"/><path fill="#FAFDFC" fill-opacity="0.19215687" transform="scale(0.221292 0.221491)" d="M1877.92 4176.36C1882.47 4185.12 1881.37 4195.32 1885.92 4200.27C1894.89 4201.02 1899.97 4195.78 1907.82 4191.55C1908.46 4191.21 1909.18 4191.37 1909.86 4191.28L1910.05 4195.49C1905.26 4201.58 1902.74 4203.94 1896.56 4205.6C1895.79 4205.81 1895.01 4206.07 1894.24 4206.29C1893.74 4206.43 1893.24 4206.55 1892.74 4206.69C1884.6 4206.11 1880.34 4206.32 1873.4 4213.43C1871.27 4215.62 1869.9 4214.98 1867.36 4215.11C1867.12 4207.01 1879.56 4198.85 1880.41 4185.9L1877.35 4180.51L1877.92 4176.36Z"/><path fill="#FCFCFA" fill-opacity="0.18039216" transform="scale(0.221292 0.221491)" d="M1165.01 3868.57C1167.94 3869.37 1170.55 3869.85 1173.19 3872.1C1175.35 3873.94 1174.55 3873.38 1175.33 3877.91C1172.79 3881.81 1170.98 3882.24 1167.47 3883.27C1163.08 3883.44 1157.77 3884.57 1153.73 3881.66C1151.66 3880.16 1152.21 3880.22 1151.74 3876.8C1155.62 3870.98 1159.87 3870.24 1165.01 3868.57Z"/><path fill="#947538" transform="scale(0.221292 0.221491)" d="M1481.89 770.091C1498.11 765.846 1534.02 737.705 1547.37 741.764C1559.53 745.462 1589.27 810.41 1599.84 826.451C1608.6 839.745 1619.51 851.273 1629.61 862.316C1675.72 912.758 1725.81 938.184 1778.88 965.886C1859.29 1007.86 1950.18 1008.71 2033.87 995.319C2048.17 993.03 2070.11 992.953 2082.63 982.355C2086.49 979.087 2087.41 976.745 2088.37 970.476C2085.92 961.845 2078.34 956.148 2073.69 949.766C2036.53 898.681 1999.02 856.799 1955.54 818.176C1943.82 807.768 1927.93 802.725 1918.13 788.819C1916.02 778.88 1931.45 725.574 1935.97 714.791C1938.02 709.897 1940.87 707.874 1944.73 707.753C1960.02 707.274 1990.99 735.566 2004.1 747.732C2064.52 803.789 2118.52 864.219 2166.8 942.893C2183.95 970.83 2195.97 1003.38 2211.77 1032.61L2213.07 1034.98C2216.97 1065.3 2211.51 1057.28 2226.73 1080.29C2233.81 1091 2237.82 1110.94 2241.68 1124.9C2263.32 1203.21 2276.63 1282.13 2275.04 1367.59C2274.08 1419.18 2268.51 1465.36 2259.88 1515.2C2235.57 1655.63 2203.3 1708.79 2135.39 1805.23C2119.98 1825.9 2088.72 1853.88 2079.65 1878.34L2079.83 1883.36C2084.87 1886.32 2089.93 1884.22 2094.69 1880.91C2103.05 1875.1 2111.06 1864.86 2118.55 1856.77C2128.25 1861.34 2134.61 1864.52 2141.83 1876.02C2142.35 1876.73 2142.84 1877.5 2143.38 1878.17C2145.59 1880.92 2147.12 1881.47 2149.64 1883.09C2184.98 1905.76 2244.6 2005.37 2257.46 2058.85C2272.76 2121.83 2270.62 2191.38 2251.53 2251.98C2235.44 2302.51 2210.83 2348.91 2184.66 2388.7C2165.45 2417.92 2143.63 2444.88 2122.15 2470.28C2108.43 2486.52 2092.96 2502.66 2080.95 2521.71C2078.13 2526.2 2076.34 2530.48 2075.12 2536.43L2077.15 2538.06C2090.84 2530.13 2102.57 2503.72 2118.38 2514.97C2128.45 2522.14 2138.35 2537.59 2147.01 2548.45C2190.81 2603.36 2243.26 2674.69 2260.95 2758.42C2274 2820.19 2270.09 2893.61 2249.74 2951.07C2221.5 3030.77 2162.55 3090.92 2116.33 3146.05C2094.25 3172.38 2072.87 3201.88 2048.39 3223.21C2018.38 3249.38 1987.87 3275.81 1956.85 3299.19C1936.16 3314.79 1913.47 3327.71 1893.89 3346.18C1866.42 3372.1 1794.86 3458.26 1770.72 3469.13C1764.81 3471.8 1758.11 3472.76 1752.57 3467.75C1745.27 3461.15 1739.89 3450.05 1732.38 3443.99C1724.15 3434.38 1715.11 3426.01 1706.42 3417.34C1704.47 3412.72 1698.98 3409.44 1695.85 3407.03C1688.11 3401.06 1686.27 3396.42 1683.7 3384.07C1698.17 3371.39 1714.84 3370.33 1729.33 3358.62C1741.75 3348.59 1753.45 3336.17 1765.76 3325.74C1838.96 3263.71 1913.46 3208.02 1979.19 3128.11C1985.75 3120.15 1994.24 3112.98 1999.03 3102.62L1997.04 3100.58C1982.72 3097.2 1968.35 3127.9 1953.65 3132.33C1948.54 3133.87 1943.38 3132.9 1938.75 3129.31C1907.27 3104.94 1878.08 3072.36 1847.61 3045.32C1790.29 2994.47 1728.05 2943.08 1672.34 2889.55C1651.48 2867.47 1621.4 2854.76 1603.55 2827.96C1589.3 2816.91 1575.86 2799.51 1562.42 2786.12C1545.27 2769.04 1527.09 2754.43 1509.87 2737.53C1472.04 2700.41 1394.88 2612.62 1352.07 2603.78C1351.05 2592.56 1349.38 2582.7 1352.89 2572.11C1364.43 2560.19 1410.7 2516.37 1421.89 2514.06C1429.28 2512.53 1434.4 2517.13 1440.26 2523.21C1496.27 2578.82 1553.09 2632.55 1610.7 2684.35C1623.81 2696.18 1636.89 2708.5 1650.43 2719.18C1657.78 2724.97 1668.31 2730.07 1674.72 2737.11C1697.36 2752.91 1731.47 2784.53 1751.88 2806.74C1757.67 2813.03 1762.57 2820.74 1768.35 2827.1C1785.01 2840.07 1799.01 2858.97 1814.89 2873.78C1873.5 2928.45 1936.88 2992.4 1999.43 3034.8C2012.76 3043.84 2013.66 3058.72 2021.44 3074.98C2023.48 3079.23 2023.24 3078.24 2026.36 3079.06C2042.08 3072 2054.04 3053.91 2067.02 3039.57C2098.5 3004.78 2127.32 2973.12 2153.23 2928.28C2166.87 2904.67 2176.38 2865.44 2174.49 2834.43C2170.8 2774.08 2132.13 2708.74 2101.97 2672.25C2084.03 2650.55 2063.83 2632.63 2046.42 2610.07L2044.33 2607.31C2037.18 2598.12 2040.16 2585.67 2034.97 2577.11C2033.92 2575.38 2033.59 2575.34 2032.03 2575.35C2024.63 2575.43 2015.75 2582.78 2009.31 2588.14C1995.82 2599.39 1983.03 2613.04 1969.92 2625.3C1943.99 2649.31 1917.96 2673.09 1891.84 2696.63L1833.51 2748.58C1824.21 2756.68 1813.67 2762.24 1805.72 2773.29C1803.51 2776.36 1802.14 2778.99 1799.27 2780.63C1798.77 2780.92 1798.23 2781.03 1797.72 2781.23C1789.71 2783.72 1783.29 2791.23 1774.82 2792.14C1755.54 2794.22 1732.86 2751.53 1712.07 2745.38C1710.1 2744.79 1708.09 2744.39 1706.15 2743.62C1701.83 2741.93 1700.31 2740.51 1698.24 2734.73C1698.44 2729.67 1698.6 2725.19 1698.23 2720.13C1698.15 2718.97 1698.02 2717.81 1697.92 2716.64C1710.63 2703.72 1725 2694.83 1738.28 2683.3C1786.15 2641.71 1948.69 2506.17 1975.31 2450.54L1974.68 2446.83C1956.47 2448.65 1942.4 2475.8 1924.61 2481.38C1923.62 2481.69 1920.21 2482.58 1919.5 2482.46C1908.84 2480.75 1843.95 2407.76 1830.7 2394.38C1823.65 2371.75 1641.33 2226.47 1612.48 2200.5C1598.1 2187.55 1584.3 2173.22 1571.16 2157.59C1561.3 2142.82 1545.4 2130.47 1533.68 2118.95C1484.86 2071.03 1435 2023.98 1385.17 1978.46C1369.3 1963.96 1352.19 1952.51 1336.74 1936.93C1332.4 1932.55 1327.02 1927.22 1324.58 1920.02C1322.93 1915.13 1322.54 1909.8 1323.73 1904.64C1349.52 1891.35 1370.75 1863.59 1395.23 1846.61C1411.3 1854.1 1429.17 1877.01 1443.54 1891.01C1511.06 1956.76 1578.55 2024.93 1648.16 2085.48C1677.79 2111.25 1710.94 2128.35 1739.92 2155.8C1754.63 2169.74 1767.09 2188.76 1781.69 2203.33C1807.7 2229.27 1835.05 2252.18 1861.32 2277.51C1888.74 2303.95 1915.16 2332.87 1942.25 2360.1C1951.34 2369.25 1981.56 2392.98 1985.36 2404.53C1988.34 2413.59 1990.18 2423.58 1991.77 2433.35C2003.19 2436.97 2012.61 2429.94 2022.08 2420.77C2075.82 2368.79 2156.39 2276.8 2170.11 2178.3C2177.84 2122.8 2166.63 2081.39 2146.31 2035.86C2137.44 2015.99 2127.23 1997.27 2114.95 1981.92C2105.15 1969.67 2073.73 1942.12 2068.2 1929.39C2063.9 1919.51 2064.41 1903.28 2062.98 1891.75C2055.41 1892.04 2045.25 1902.16 2038.62 1907.73C2013.74 1928.63 1989.94 1952.78 1965.68 1975.28C1923.19 2014.69 1880.75 2053.87 1838.72 2094.4C1822.61 2109.94 1794.27 2131.77 1781.33 2151.6L1765.29 2155.77C1751.31 2142.15 1738.51 2125.52 1724.53 2112.35C1717.31 2105.55 1707.4 2103.65 1701.68 2094.65L1700.93 2089.38C1722.98 2054.33 1808.86 1982.23 1839.91 1953.48C1872.68 1923.13 1904.52 1890.28 1937.81 1861.27C1960.95 1838.19 1984.17 1815.3 2007.47 1792.6C2044.22 1757.1 2079.21 1726.64 2107.89 1675.58C2175.61 1555.02 2200.89 1381.2 2174.51 1229.2C2171.09 1209.35 2166.79 1189.87 2161.63 1170.88C2156.4 1151.21 2146.34 1126.36 2145.07 1105.38C2150.51 1084.3 2187.37 1089.43 2199.88 1074.21C2201.71 1071.98 2201.16 1070.02 2201.29 1066.77C2188.31 1045.67 2145.63 1073.16 2126.77 1075.31C2087.13 1079.83 2047.71 1088.35 2007.95 1091.28C1917.32 1097.97 1821.46 1081.56 1734.1 1043.56C1650.42 1007.15 1514.58 902.161 1471.89 785.655L1481.89 770.091Z"/><defs><linearGradient id="gradient_0" gradientUnits="userSpaceOnUse" x1="1891.9087" y1="2017.9308" x2="1891.4313" y2="2028.1906"><stop offset="0" stop-color="#A18447"/><stop offset="1" stop-color="#816937"/></linearGradient></defs><path fill="url(#gradient_0)" transform="scale(0.221292 0.221491)" d="M1893.54 2020.44C1894.88 2020.56 1897.16 2022.95 1898.37 2023.92L1898.07 2026.65C1897.16 2027.53 1896.3 2028.54 1895.33 2029.28C1890.69 2032.86 1885.24 2033.83 1880.33 2031.53C1878.17 2032.5 1876.38 2032.57 1874.14 2032.72C1876.65 2028.2 1883.41 2024.82 1887.22 2023.98C1889.97 2023.38 1891.16 2022.59 1893.54 2020.44Z"/><path fill="#AF9553" transform="scale(0.221292 0.221491)" d="M1641.79 906.161L1644.3 910.072C1641.86 917.618 1642.07 919.253 1636.77 922.753C1633.79 921.572 1632.83 920.531 1630.85 916.999C1633.51 910.97 1637.54 909.353 1641.79 906.161Z"/><path fill="#947538" transform="scale(0.221292 0.221491)" d="M1575.14 1486.01C1582.6 1490.14 1589.27 1496.37 1596.27 1501.95C1606.44 1510.05 1629.12 1530.31 1640.69 1524.96L1640.95 1521.02C1638.47 1515.46 1635.8 1511.14 1632.5 1506.61C1602.59 1465.53 1565.22 1436.25 1529.56 1408.32C1439.08 1337.45 1353.11 1287.67 1249.61 1286.37C1234.57 1286.18 1219.54 1290.16 1204.5 1291.01C1199.03 1291.33 1195.48 1291.33 1191.46 1285.62C1189.18 1272.02 1191.25 1255.66 1191.87 1241.62C1192.32 1231.46 1192.61 1215.64 1199.22 1209.5C1207.6 1201.71 1228 1204.96 1238.25 1204.79C1314.74 1203.48 1387.43 1212.69 1460.47 1249.27C1502.43 1270.29 1545.84 1293.11 1585.15 1323.73C1608.8 1342.16 1631.13 1364.35 1654.62 1383.18C1668.18 1394.05 1683.09 1401.7 1696.21 1413.67C1722.38 1437.57 1745.82 1466.52 1771.21 1491.86C1830.66 1550.46 1890.47 1608.26 1950.61 1665.25C1970.44 1683.94 1990.18 1703.22 2010.35 1721.06C2013.5 1723.85 2020.36 1726.89 2022.72 1730.36C2023.98 1732.22 2024.3 1735.1 2025.09 1737.47C2024.8 1738.21 2024.56 1739 2024.22 1739.7C2019.15 1750.23 1965.17 1799.89 1956.95 1802.31C1947.54 1805.07 1938.77 1800.26 1930.93 1792.63C1930.43 1792.15 1929.95 1791.66 1929.46 1791.17C1928.77 1790.69 1928.08 1790.23 1927.39 1789.74C1911.64 1778.54 1895.63 1758.65 1880.98 1744.07C1845.84 1709.09 1810.17 1675.34 1775.19 1639.98C1743.62 1608.07 1710.79 1571.26 1676.98 1545.29C1672.33 1541.71 1667.34 1537.91 1662 1538.99C1659.36 1542.66 1659.27 1545.28 1658.56 1550.32C1656.91 1562.07 1653.91 1563.72 1647.5 1569.87L1475.47 1733.16C1434.77 1771.84 1390.64 1808.35 1355.08 1857.37C1354.64 1857.44 1354.18 1857.37 1353.77 1857.59C1342.93 1863.44 1331.51 1881.95 1321.91 1892.06C1311.92 1902.59 1299.52 1908.5 1289.1 1918.74C1251.76 1955.42 1212.78 2012.58 1193 2073.23C1178.89 2116.53 1175.87 2163.91 1186.54 2209.69C1204.08 2285 1252.71 2357.78 1299.85 2392.83C1304.7 2396.44 1306.48 2400.17 1308.15 2407.65C1297.44 2424.63 1258.5 2455.22 1243.65 2463.36C1239.04 2465.89 1234.76 2463.62 1230.65 2460.24C1223.57 2454.42 1217.37 2445.52 1210.56 2438.87C1152.82 2382.39 1102.21 2308.61 1083.08 2206.68C1070.44 2139.33 1080.54 2073.79 1103.14 2014.38C1125.45 1955.74 1161.56 1901.92 1196.33 1859.31C1221.24 1828.8 1249.85 1798.9 1277.06 1773.12C1291.24 1759.68 1306.22 1748.19 1320.45 1734.73C1363.2 1694.27 1405.24 1652.02 1447.81 1611.11C1473.67 1586.62 1499.1 1561.12 1524.07 1534.63C1536.38 1521.54 1548.46 1505.19 1561.28 1493.58C1565.41 1489.83 1570.52 1487.91 1575.14 1486.01Z"/><path fill="#FCFCFA" fill-opacity="0.24705882" transform="scale(0.221292 0.221491)" d="M1355.08 1857.37C1390.64 1808.35 1434.77 1771.84 1475.47 1733.16L1647.5 1569.87C1653.91 1563.72 1656.91 1562.07 1658.56 1550.32C1659.27 1545.28 1659.36 1542.66 1662 1538.99C1667.34 1537.91 1672.33 1541.71 1676.98 1545.29C1710.79 1571.26 1743.62 1608.07 1775.19 1639.98C1810.17 1675.34 1845.84 1709.09 1880.98 1744.07C1895.63 1758.65 1911.64 1778.54 1927.39 1789.74C1928.08 1790.23 1928.77 1790.69 1929.46 1791.17L1931.5 1798.65L1929.27 1798.53C1913.97 1786.87 1899.87 1769.12 1885.52 1754.87C1847.95 1717.55 1809.77 1681.73 1772.33 1644.04C1744.93 1616.46 1707.51 1575.27 1679.17 1553.25C1674.68 1549.77 1669.61 1547.86 1664.7 1546.26L1663.92 1549.61C1662.69 1554.8 1661.37 1562.22 1658.65 1566.11C1646.8 1583.05 1610.71 1610.61 1594.43 1625.54C1565.43 1652.13 1387.92 1820.73 1381.58 1834.8C1385.31 1841.49 1396.76 1838.59 1402.48 1843.09C1411.11 1849.88 1419.37 1860.7 1427.7 1868.69C1457.22 1897.01 1662.27 2102.09 1684.02 2103.75C1688.08 2104.06 1690.98 2102.35 1693.61 2097.72C1698.11 2089.81 1700.64 2078.78 1705.75 2071.61C1712.32 2062.39 1723.9 2055.98 1731.61 2048.19C1786.6 1992.64 1844.26 1942.82 1900.25 1889.52C1914.04 1876.4 1933.71 1863.21 1944.51 1844.88L1946.19 1846.31L1937.81 1861.27C1904.52 1890.28 1872.68 1923.13 1839.91 1953.48C1808.86 1982.23 1722.98 2054.33 1700.93 2089.38L1701.68 2094.65C1707.4 2103.65 1717.31 2105.55 1724.53 2112.35C1738.51 2125.52 1751.31 2142.15 1765.29 2155.77L1781.33 2151.6C1794.27 2131.77 1822.61 2109.94 1838.72 2094.4C1880.75 2053.87 1923.19 2014.69 1965.68 1975.28C1989.94 1952.78 2013.74 1928.63 2038.62 1907.73C2045.25 1902.16 2055.41 1892.04 2062.98 1891.75C2064.41 1903.28 2063.9 1919.51 2068.2 1929.39C2073.73 1942.12 2105.15 1969.67 2114.95 1981.92C2127.23 1997.27 2137.44 2015.99 2146.31 2035.86C2166.63 2081.39 2177.84 2122.8 2170.11 2178.3C2156.39 2276.8 2075.82 2368.79 2022.08 2420.77C2012.61 2429.94 2003.19 2436.97 1991.77 2433.35C1990.18 2423.58 1988.34 2413.59 1985.36 2404.53C1981.56 2392.98 1951.34 2369.25 1942.25 2360.1C1915.16 2332.87 1888.74 2303.95 1861.32 2277.51C1835.05 2252.18 1807.7 2229.27 1781.69 2203.33C1767.09 2188.76 1754.63 2169.74 1739.92 2155.8C1710.94 2128.35 1677.79 2111.25 1648.16 2085.48C1578.55 2024.93 1511.06 1956.76 1443.54 1891.01C1429.17 1877.01 1411.3 1854.1 1395.23 1846.61C1391.27 1844.39 1389.66 1843.72 1385.77 1846.78C1377.25 1853.49 1370.36 1864.47 1360.74 1867.58L1357.15 1865.97C1356.32 1863.05 1355.61 1860.46 1355.08 1857.37ZM1940.54 2350.78C1954.9 2364.86 1990.93 2390.81 1994.85 2416.92C1994.98 2417.82 1995.09 2418.73 1995.22 2419.63C1995.74 2423.2 1996.26 2426.75 1996.74 2430.33C2001.28 2429.11 2006.32 2428 2010.46 2424.86C2037.08 2404.67 2091.31 2338.4 2112.51 2306.76C2122.81 2291.23 2132.21 2274.42 2140.63 2256.52C2159.54 2215.9 2172.67 2166.34 2166.49 2116.22C2158.48 2051.29 2121.42 1991.72 2086.01 1956.45C2072.71 1943.21 2064.65 1932.02 2057.03 1910.75C2054.74 1908.92 2052.62 1907.15 2050.18 1905.85C2021.24 1928.48 1994.29 1955.71 1966.6 1981.51C1922.37 2022.2 1878.39 2063.48 1834.65 2105.36C1819.53 2119.64 1791.81 2153.74 1776.39 2159.17C1772.31 2160.61 1768.85 2161.18 1766.01 2166.22C1765.68 2169.42 1764.49 2173.68 1765.81 2176.45C1775.79 2197.27 1849.47 2258.36 1868.8 2277.45C1892.96 2301.32 1916.21 2327.34 1940.54 2350.78Z"/><path fill="#947538" transform="scale(0.221292 0.221491)" d="M1554.66 2217.44C1561.33 2209.44 1569.96 2202.37 1578.8 2203.99C1594.14 2206.8 1637.1 2241.37 1646.58 2260.47C1646.59 2266.93 1643.85 2272.15 1640.8 2276.6C1628.62 2294.34 1609.13 2300.6 1597.38 2318.24C1597.16 2318.37 1596.93 2318.47 1596.72 2318.63C1579.37 2332.47 1562.82 2349.73 1546.21 2365.53C1519.98 2390.49 1493.53 2415.29 1466.88 2439.25C1378.42 2518.79 1209.69 2633.92 1181.34 2789.22C1165.16 2877.84 1201.06 2960.93 1245.69 3014.04C1256.7 3027.15 1275.78 3041.73 1282.67 3059.52C1282.47 3060.32 1282.33 3061.17 1282.06 3061.92C1278.05 3073.36 1224.15 3121.57 1213.24 3127.58C1194.8 3125.06 1156.19 3067.14 1142.69 3046.55C1107.26 2992.52 1078.15 2916.51 1078.92 2838.54C1079.94 2734.57 1130.43 2638.29 1181.88 2575.22C1203.74 2548.42 1227.21 2525.94 1250.69 2502.59C1271.51 2481.89 1292.26 2460.45 1313.81 2441.49C1328.16 2428.87 1343.18 2418.16 1357.49 2405.38C1405.6 2362.43 1452.28 2316.83 1498.91 2270.44C1515.32 2254.11 1539.25 2241.06 1552.9 2220.24C1553.5 2219.32 1554.07 2218.37 1554.66 2217.44Z"/><path fill="#947538" transform="scale(0.221292 0.221491)" d="M1323.1 3262.96C1326.09 3259.7 1329.02 3256.43 1331.73 3252.64C1343.25 3236.48 1388.12 3189.1 1401.71 3182.06C1406.56 3179.55 1411.06 3181.74 1415.63 3184.67C1437.13 3198.43 1458.22 3222.02 1478.08 3240.84C1539.07 3298.65 1598.46 3361.29 1660.59 3416.19C1674.58 3428.55 1688.4 3444.04 1703.15 3453.94C1703.8 3454.37 1704.46 3454.79 1705.11 3455.22C1725.94 3467.53 1743.53 3490.15 1761.29 3510.07C1762.32 3512.88 1763.33 3516.15 1764.75 3518.58C1775.74 3537.42 1803.74 3556.02 1818.68 3568.34C1831.16 3578.64 1843.16 3590.52 1856 3599.81C1920.04 3646.14 1997.42 3672.88 2067.94 3683.75C2094.39 3687.83 2121.15 3686.94 2147.52 3692.66C2146.96 3712.19 2152.12 3763.91 2144.18 3776.81C2118.96 3791.22 2057.66 3776.51 2029.43 3771.86C1946.25 3757.94 1865.06 3724.32 1788.9 3672.24C1767.57 3657.73 1746.89 3640.37 1726.11 3624.16C1697.48 3601.81 1668.22 3578.81 1641.04 3552.68C1629.05 3541.15 1618.41 3527.07 1607.01 3514.36C1584.4 3489.12 1561.23 3464.49 1538.38 3439.68C1505.13 3403.56 1470.1 3370.66 1435.8 3336.83C1413.62 3314.95 1389.67 3286.91 1364.63 3273.55C1351.98 3266.8 1336.38 3265.66 1323.1 3262.96Z"/><path fill="#FCFCFA" fill-opacity="0.1882353" transform="scale(0.221292 0.221491)" d="M1560.41 2153.39C1564.04 2155.12 1567.37 2156.71 1571.16 2157.59C1584.3 2173.22 1598.1 2187.55 1612.48 2200.5C1641.33 2226.47 1823.65 2371.75 1830.7 2394.38C1824.06 2393.64 1752.39 2324.86 1739.26 2313.43C1725.3 2301.28 1664.4 2242.28 1651.59 2247.4C1652.72 2252.32 1653.26 2256.33 1653.49 2261.52C1640.91 2291.47 1616.76 2304.37 1597.7 2323.26L1597.38 2318.24C1609.13 2300.6 1628.62 2294.34 1640.8 2276.6C1643.85 2272.15 1646.59 2266.93 1646.58 2260.47C1637.1 2241.37 1594.14 2206.8 1578.8 2203.99C1569.96 2202.37 1561.33 2209.44 1554.66 2217.44C1546.66 2221.67 1539.32 2231.56 1531.61 2234.25C1534.93 2216.79 1578.9 2199.57 1587.4 2186.82C1585.16 2175.66 1568.22 2163.76 1561.82 2155.38C1561.34 2154.74 1560.88 2154.05 1560.41 2153.39Z"/><path fill="#8A8C8B" fill-opacity="0.054901961" transform="scale(0.221292 0.221491)" d="M1335.55 2561.97C1341.71 2553.57 1436.59 2470.65 1444.38 2467.15C1447.8 2476.5 1452.6 2470.56 1454.22 2481.21C1451.63 2491.03 1447.64 2495.47 1441.33 2499.62C1437.38 2502.22 1434.79 2502.37 1430.7 2503.34C1429.87 2503.53 1429.07 2503.96 1428.26 2504.28C1431.31 2507.88 1434.38 2511.21 1437.64 2514.41L1440.26 2523.21C1434.4 2517.13 1429.28 2512.53 1421.89 2514.06C1410.7 2516.37 1364.43 2560.19 1352.89 2572.11C1349.38 2582.7 1351.05 2592.56 1352.07 2603.78C1341.6 2589.01 1348.35 2577.37 1342.45 2563.16L1335.55 2561.97ZM1441.89 2498.36C1444.57 2492.41 1448.64 2486.56 1448.42 2479.32C1445 2478.27 1442.6 2478.55 1439.16 2479.37C1438.62 2480.34 1438.1 2481.33 1437.54 2482.29C1435.4 2486.02 1433.26 2488.85 1430.77 2492L1430.11 2495.98C1434.16 2498.94 1437.53 2498.54 1441.89 2498.36Z"/><path fill="#8A8C8B" fill-opacity="0.011764706" transform="scale(0.221292 0.221491)" d="M1398.28 3152.62C1400.41 3158.86 1402.42 3160.4 1406.31 3163.85C1407.16 3168.77 1407.32 3166.87 1406.93 3169.52C1393.31 3177.32 1328.39 3239.18 1323.96 3258.27C1323.33 3261.01 1323.38 3263.11 1323.31 3265.87C1326.03 3271.67 1327.92 3272.39 1332.61 3273.41C1340.79 3275.21 1349.27 3274.07 1357.33 3276.99C1347.25 3279.01 1327.9 3273.59 1319.44 3279.96C1317.28 3281.58 1313.94 3288.16 1312.08 3290.93L1310.46 3290.46C1311.04 3275.76 1316.34 3263.8 1315.94 3248.81C1314.46 3244.74 1313.69 3241.41 1312.8 3237.02C1337.05 3213.09 1363.48 3174.6 1390.22 3157.96C1392.93 3156.26 1395.59 3154.42 1398.28 3152.62Z"/><path fill="#FAFDFC" fill-opacity="0.090196081" transform="scale(0.221292 0.221491)" d="M1674.72 2737.11C1679.13 2737.18 1683.52 2736.87 1687.93 2736.59C1693.1 2731.39 1693.34 2726.2 1696.79 2718.86C1697.15 2718.1 1697.54 2717.38 1697.92 2716.64C1698.02 2717.81 1698.15 2718.97 1698.23 2720.13C1698.6 2725.19 1698.44 2729.67 1698.24 2734.73C1700.31 2740.51 1701.83 2741.93 1706.15 2743.62C1708.09 2744.39 1710.1 2744.79 1712.07 2745.38C1732.86 2751.53 1755.54 2794.22 1774.82 2792.14C1783.29 2791.23 1789.71 2783.72 1797.72 2781.23C1795.12 2784.87 1792.5 2788.9 1789.77 2792.27C1783.22 2800.35 1772.69 2801.05 1764.59 2801.51C1763.19 2807.29 1763.8 2811.16 1765.63 2816.75C1766.88 2820.56 1767.81 2822.81 1768.35 2827.1C1762.57 2820.74 1757.67 2813.03 1751.88 2806.74C1731.47 2784.53 1697.36 2752.91 1674.72 2737.11Z"/><path fill="#FCFCFA" fill-opacity="0.011764706" transform="scale(0.221292 0.221491)" d="M1526.02 4605.1C1560.32 4663.96 1585.98 4679.69 1626.4 4720.82C1618.62 4721.16 1609.58 4722.55 1602.12 4718.85C1584.43 4710.06 1531.47 4647.46 1522.5 4622.88L1526.02 4605.1Z"/><path fill="#8A8C8B" fill-opacity="0.011764706" transform="scale(0.221292 0.221491)" d="M1603.55 2827.96C1621.4 2854.76 1651.48 2867.47 1672.34 2889.55C1665.16 2896.59 1659 2892.23 1651.85 2901.9C1641.39 2890.84 1629.76 2882.99 1618.97 2872.68C1611.29 2865.34 1604.33 2855.13 1596.71 2848.3C1594.09 2845.96 1590.99 2844.48 1588.1 2843.12L1599.67 2842.33C1603.31 2837.64 1602.81 2834.91 1603.55 2827.96Z"/><path fill="#FAFDFC" fill-opacity="0.14117648" transform="scale(0.221292 0.221491)" d="M1706.42 3417.34C1715.11 3426.01 1724.15 3434.38 1732.38 3443.99C1739.36 3457.15 1746.47 3475.52 1758.55 3477.84C1765.63 3479.2 1773.19 3473.24 1779.61 3469.38L1778.17 3471.23C1773.04 3477.75 1764.13 3483.06 1761.06 3491.64C1760.75 3499.57 1763.22 3504.27 1766.54 3509.93C1767.75 3512 1769.02 3513.99 1770.25 3516.03C1772.27 3519.39 1771.52 3517.93 1773.06 3522.22C1769.23 3517.7 1765.53 3513.7 1761.29 3510.07C1743.53 3490.15 1725.94 3467.53 1705.11 3455.22C1702.35 3449.92 1698.97 3445.59 1695.67 3441.07C1703.26 3445.08 1718.2 3447.84 1723.64 3456.3C1724.11 3457.02 1724.42 3457.94 1724.89 3458.65C1727.7 3462.9 1728.68 3462.59 1732.48 3462.83L1733.81 3459.35C1729.39 3444.03 1712.26 3437.19 1707.39 3420.97C1707.04 3419.78 1706.74 3418.55 1706.42 3417.34Z"/><path fill="#FAFDFC" fill-opacity="0.035294119" transform="scale(0.221292 0.221491)" d="M1663.56 3411.6L1670.5 3411.77C1676.09 3407.52 1677.88 3401.83 1680.31 3393.57C1681.66 3388.96 1680.94 3390.78 1682.67 3386.49C1683 3385.67 1683.36 3384.88 1683.7 3384.07C1686.27 3396.42 1688.11 3401.06 1695.85 3407.03C1698.98 3409.44 1704.47 3412.72 1706.42 3417.34C1706.74 3418.55 1707.04 3419.78 1707.39 3420.97C1712.26 3437.19 1729.39 3444.03 1733.81 3459.35L1732.48 3462.83C1728.68 3462.59 1727.7 3462.9 1724.89 3458.65C1724.42 3457.94 1724.11 3457.02 1723.64 3456.3C1718.2 3447.84 1703.26 3445.08 1695.67 3441.07C1687.27 3434.56 1680.26 3421.85 1671.35 3417.16C1667.69 3415.23 1669.39 3416.49 1665.72 3413.47C1664.99 3412.87 1664.28 3412.22 1663.56 3411.6Z"/><path fill="#8A8C8B" fill-opacity="0.031372551" transform="scale(0.221292 0.221491)" d="M1239.44 2472.37C1239.93 2472.21 1240.43 2472.06 1240.92 2471.88C1262.26 2464.16 1281.87 2430.43 1304.84 2429.88L1306.85 2432.49C1305.49 2438.19 1305.15 2441.41 1301.36 2444.54C1287.88 2455.67 1276.22 2468.41 1263.95 2482.55C1261.58 2485.28 1260.1 2486.65 1257.3 2487.95C1253.49 2486.61 1249.58 2485.41 1245.93 2483.26C1241.08 2480.4 1241.41 2479.39 1239.44 2472.37Z"/><path fill="#FAFDFC" fill-opacity="0.17647059" transform="scale(0.221292 0.221491)" d="M2135.39 1805.23L2138.64 1807.3L2137.26 1809.45C2131.88 1817.74 2122.21 1825.62 2119.31 1835.99C2119.63 1842.55 2119.99 1845.76 2123.6 1850.07C2130.85 1858.71 2140.32 1861.58 2144.75 1875.03L2141.83 1876.02C2134.61 1864.52 2128.25 1861.34 2118.55 1856.77C2111.06 1864.86 2103.05 1875.1 2094.69 1880.91C2089.93 1884.22 2084.87 1886.32 2079.83 1883.36L2079.65 1878.34C2088.72 1853.88 2119.98 1825.9 2135.39 1805.23Z"/><path fill="#FCFCFA" fill-opacity="0.13725491" transform="scale(0.221292 0.221491)" d="M1931.5 1798.65C1932.26 1799.42 1933 1800.22 1933.78 1800.95C1942.01 1808.69 1953.4 1810.15 1962.57 1806.07C1974.19 1800.9 1984.24 1789.69 1993.25 1777.89C1995.98 1774.32 1998.36 1771.6 2002.22 1771.61C2005.11 1771.63 2007.42 1771.95 2009.39 1775.05C2008.23 1777.72 1951.76 1840.86 1946.19 1846.31L1944.51 1844.88C1948.61 1838.21 1954.73 1833.84 1956.51 1824.49C1957.19 1820.87 1956.21 1820.44 1954.93 1817.59C1946.29 1814.27 1934.63 1809.64 1929.27 1798.53L1931.5 1798.65Z"/><path fill="#8A8C8B" fill-opacity="0.047058824" transform="scale(0.221292 0.221491)" d="M1198.39 1791.21C1206.25 1799.12 1211.26 1803.25 1220.77 1800.04C1235.75 1794.98 1247.74 1761.21 1264.49 1771.36L1264.82 1775.01C1259.33 1781.69 1230.14 1817.35 1225.92 1818.62C1225.21 1817.9 1224.56 1816.99 1223.78 1816.46C1220.43 1814.24 1217.71 1813.88 1214.3 1810.73L1215.62 1810.48C1206.99 1806.13 1202.69 1803.73 1198.39 1791.21Z"/><path fill="#FCFCFA" fill-opacity="0.015686275" transform="scale(0.221292 0.221491)" d="M1420.8 4272.62C1425.75 4278.13 1426.71 4278.14 1427.45 4287.72C1428.05 4295.55 1427.27 4301.53 1424.02 4307.5C1418.27 4307.14 1415.9 4303.53 1411.68 4298.1L1404.5 4296.23C1409.23 4295.31 1413.03 4294.47 1417.38 4291.27C1420.75 4285.2 1420.57 4280.1 1420.8 4272.62Z"/><path fill="#FAFDFC" fill-opacity="0.011764706" transform="scale(0.221292 0.221491)" d="M1453.58 4222.39C1453.3 4218.04 1452.87 4214.39 1451.95 4210.24C1450.33 4209.75 1449.81 4209.69 1448.1 4208.59C1443.66 4205.74 1441.81 4203.32 1439.88 4196.92C1440.88 4190.98 1440.41 4190.29 1443.64 4186.05C1449.54 4190.36 1451.3 4199.85 1456.49 4205.5C1457.17 4206.24 1457.88 4206.93 1458.57 4207.65C1455.95 4212.76 1454.6 4216.1 1453.58 4222.39Z"/></svg>